<?xml version="1.0" encoding="utf-8"?>
<!-- Generator: Adobe Illustrator 16.0.0, SVG Export Plug-In . SVG Version: 6.00 Build 0)  -->
<!DOCTYPE svg PUBLIC "-//W3C//DTD SVG 1.1//EN" "http://www.w3.org/Graphics/SVG/1.1/DTD/svg11.dtd">
<svg version="1.1" id="Layer_1" xmlns="http://www.w3.org/2000/svg" xmlns:xlink="http://www.w3.org/1999/xlink" x="0px" y="0px"
	 width="120px" height="40px" viewBox="0 0 120 40" enable-background="new 0 0 120 40" xml:space="preserve">
<g>
	<g>
		<path fill="#4F545F" d="M-0.004,15.499h5v14h2v-14h5v-2h-12V15.499z M18.998,13.494c-1.947,0-3.435,0.722-4.463,2.164
			c-1.029,1.443-1.543,3.387-1.543,5.833c0,2.451,0.514,4.398,1.543,5.842c1.028,1.443,2.516,2.164,4.463,2.164
			c1.954,0,3.443-0.721,4.468-2.164s1.538-3.391,1.538-5.842c0-2.445-0.513-4.389-1.538-5.833
			C22.441,14.215,20.952,13.494,18.998,13.494z M21.847,26.002c-0.761,0.992-1.71,1.488-2.849,1.488
			c-1.139,0-2.088-0.496-2.849-1.488c-0.76-0.99-1.141-2.494-1.141-4.507c0-2.013,0.38-3.516,1.141-4.507
			c0.761-0.992,1.71-1.487,2.849-1.487c1.139,0,2.088,0.496,2.849,1.487c0.76,0.992,1.141,2.494,1.141,4.507
			C22.988,23.508,22.607,25.012,21.847,26.002z M35.504,14.221c-0.746-0.366-1.766-0.714-3.393-0.714l-4.116-0.008v16h2l0.01-5.006
			h1.234c1.634,0,2.587-0.379,3.541-0.854s1.697-1.273,2.23-2.156c0.533-0.881,0.8-1.915,0.8-2.934c0-0.868-0.198-1.862-0.595-2.566
			S36.249,14.586,35.504,14.221z M35.019,20.467c-0.335,0.623-0.814,1.101-1.436,1.433c-0.622,0.332-1.494,0.564-2.25,0.564h-1.328
			v-6.994h1.633c1.764,0,2.387,0.182,2.985,0.716s0.897,1.34,0.897,2.257C35.521,19.169,35.354,19.844,35.019,20.467z
			 M83.996,15.499h4v12h-4v2h10v-2h-4v-12h4v-2h-10V15.499z M99.308,14.456c-1.052,0.642-1.899,1.584-2.477,2.829
			s-0.866,2.648-0.866,4.21c0,1.575,0.292,2.985,0.877,4.233c0.584,1.248,1.434,2.188,2.486,2.82
			c1.053,0.631,2.205,0.947,3.457,0.947c0.949,0,2.022-0.211,3.219-0.631v-1.967c-1.113,0.602-2.215,0.596-3.301,0.596
			c-0.819,0-1.565-0.258-2.24-0.773c-0.674-0.516-1.383-1.045-1.816-2.082c-0.434-1.039-0.65-1.923-0.65-3.148
			c0-1.207,0.209-2.077,0.629-3.104s1.128-1.561,1.812-2.093s1.439-0.797,2.266-0.797c1.094,0,2.193-0.004,3.301,0.603v-1.977
			c-1.196-0.419-2.27-0.628-3.219-0.628C101.52,13.494,100.36,13.814,99.308,14.456z M118.467,15.658
			c-1.025-1.442-2.516-2.164-4.469-2.164c-1.947,0-3.435,0.722-4.463,2.164c-1.029,1.443-1.543,3.387-1.543,5.833
			c0,2.451,0.514,4.398,1.543,5.842c1.028,1.443,2.516,2.164,4.463,2.164c1.953,0,3.443-0.721,4.469-2.164
			c1.024-1.443,1.537-3.391,1.537-5.842C120.004,19.045,119.491,17.101,118.467,15.658z M116.848,26.002
			c-0.762,0.992-1.711,1.488-2.85,1.488s-2.088-0.496-2.85-1.488c-0.76-0.99-1.141-2.494-1.141-4.507
			c0-2.013,0.381-3.516,1.141-4.507c0.762-0.992,1.711-1.487,2.85-1.487s2.088,0.496,2.85,1.487c0.76,0.992,1.141,2.494,1.141,4.507
			C117.988,23.508,117.607,25.012,116.848,26.002z"/>
	</g>
</g>
<path fill-rule="evenodd" clip-rule="evenodd" fill="#0084FF" d="M63.783,32.998h-6.086l12.201-21l-12.502-0.005l-2.801-4.995
	h24.188L63.783,32.998z"/>
<path fill-rule="evenodd" clip-rule="evenodd" fill="#99CEFF" d="M54.595,7.013l6.188,11l-3,5L45.797,2.01L75.785,2l2.998,5.013
	H54.595z"/>
<path fill-rule="evenodd" clip-rule="evenodd" fill="#CCE6FF" d="M69.811,12L57.697,32.998L42.812,7l3-5l11.8,20.798L63.811,12
	H69.811z"/>
</svg>
